# Blender 3.3.1
# www.blender.org
o image_input_details
v -1.987124 -1.820539 -0.100000
v -1.987124 -1.820539 -0.100000
v -1.813740 -1.990524 -0.100000
v -1.813740 -1.990524 -0.100000
v -1.813740 -1.990524 -0.100000
v 1.987124 1.803541 -0.100000
v 1.987124 1.803541 -0.100000
v 1.987124 1.803541 -0.100000
v 1.810340 1.990524 -0.100000
v 1.810340 1.990524 -0.100000
v 1.810340 1.990524 -0.100000
v -1.987124 -1.820539 -0.100000
v -1.820539 1.987124 -0.100000
v -1.820539 1.987124 -0.100000
v -1.990524 1.813740 -0.100000
v -1.990524 1.813740 -0.100000
v -1.990524 1.813740 -0.100000
v 1.803541 -1.987124 -0.100000
v 1.803541 -1.987124 -0.100000
v 1.803541 -1.987124 -0.100000
v 1.990524 -1.810340 -0.100000
v 1.990524 -1.810340 -0.100000
v 1.990524 -1.810340 -0.100000
v -1.820539 1.987124 -0.100000
v -1.987124 -1.820539 0.000000
v -1.987124 -1.820539 0.000000
v -1.813740 -1.990524 0.000000
v -1.813740 -1.990524 0.000000
v -1.813740 -1.990524 0.000000
v 1.987124 1.803541 0.000000
v 1.987124 1.803541 0.000000
v 1.987124 1.803541 0.000000
v 1.810340 1.990524 0.000000
v 1.810340 1.990524 0.000000
v 1.810340 1.990524 0.000000
v -1.987124 -1.820539 0.000000
v -1.820539 1.987124 0.000000
v -1.820539 1.987124 0.000000
v -1.990524 1.813740 0.000000
v -1.990524 1.813740 0.000000
v -1.990524 1.813740 0.000000
v 1.803541 -1.987124 0.000000
v 1.803541 -1.987124 0.000000
v 1.803541 -1.987124 0.000000
v 1.990524 -1.810340 0.000000
v 1.990524 -1.810340 0.000000
v 1.990524 -1.810340 0.000000
v -1.820539 1.987124 0.000000
vn -0.0000 -0.0000 -1.0000
vn -0.0000 -0.0000 1.0000
vn -0.5584 0.2281 -0.7976
vn -0.0000 1.0000 -0.0000
vn -0.7001 -0.7141 -0.0000
vn -0.5584 0.2281 0.7976
vn 0.5612 0.2322 -0.7945
vn 0.7065 -0.7077 -0.0000
vn 0.5612 0.2322 0.7944
vn 0.3474 0.8066 -0.4781
vn 0.7266 0.6870 -0.0000
vn 0.3475 0.8066 0.4781
vn -0.3373 0.8122 -0.4761
vn -0.7084 0.7058 -0.0000
vn -0.3372 0.8122 0.4761
vn -0.3404 0.8105 -0.4767
vn -0.7141 0.7001 -0.0000
vn -0.3404 0.8105 0.4767
vn -0.5618 0.2330 -0.7938
vn -0.7077 -0.7065 -0.0000
vn -0.5618 0.2330 0.7938
vn 0.5524 0.2198 -0.8041
vn 0.6870 -0.7266 -0.0000
vn 0.5524 0.2198 0.8041
vn 0.3358 0.8129 -0.4759
vn 0.7058 0.7084 -0.0000
vn 0.3359 0.8129 0.4758
s 1
f 12//1 11//1 10//1 9//1 8//1 7//1 6//1 5//1 4//1 3//1 2//1 1//1
f 24//1 23//1 22//1 21//1 20//1 19//1 18//1 17//1 16//1 15//1 14//1 13//1
f 26//2 27//2 28//2 29//2 30//2 31//2 32//2 33//2 34//2 35//2 36//2 25//2
f 38//2 39//2 40//2 41//2 42//2 43//2 44//2 45//2 46//2 47//2 48//2 37//2
f 2//3 26//4 25//4 1//4
f 3//5 27//5 26//5 2//5
f 4//4 28//4 27//6 3//4
f 5//7 29//4 28//4 4//4
f 6//8 30//8 29//8 5//8
f 7//4 31//4 30//9 6//4
f 8//10 32//4 31//4 7//4
f 9//11 33//11 32//11 8//11
f 10//4 34//4 33//12 9//4
f 11//13 35//4 34//4 10//4
f 12//14 36//14 35//14 11//14
f 1//4 25//4 36//15 12//4
f 14//16 38//4 37//4 13//4
f 15//17 39//17 38//17 14//17
f 16//4 40//4 39//18 15//4
f 17//19 41//4 40//4 16//4
f 18//20 42//20 41//20 17//20
f 19//4 43//4 42//21 18//4
f 20//22 44//4 43//4 19//4
f 21//23 45//23 44//23 20//23
f 22//4 46//4 45//24 21//4
f 23//25 47//4 46//4 22//4
f 24//26 48//26 47//26 23//26
f 13//4 37//4 48//27 24//4
